<svg xmlns="http://www.w3.org/2000/svg" viewBox="0 0 90.92 70.87"><defs><style>.cls-1{fill:#e77453;opacity:0.5;}.cls-2{fill:#3c86a7;}</style></defs><g id="Слой_2" data-name="Слой 2"><g id="Слой_1-2" data-name="Слой 1"><circle class="cls-1" cx="28.76" cy="22.41" r="4.13"/><circle class="cls-1" cx="62.15" cy="22.41" r="4.13"/><circle class="cls-1" cx="28.76" cy="42.97" r="4.13"/><circle class="cls-1" cx="62.16" cy="42.97" r="4.13"/><path class="cls-2" d="M6.13,70.87H84.79a6.16,6.16,0,0,0,6.13-6.18V61.1a2.37,2.37,0,0,0-2.37-2.37H84A7.5,7.5,0,0,0,85.74,54V37.1a1.33,1.33,0,1,0-2.66,0V54a4.91,4.91,0,0,1-4,4.78H11.84a4.91,4.91,0,0,1-4-4.78V7.52A4.87,4.87,0,0,1,12.7,2.66H78.22a4.87,4.87,0,0,1,4.86,4.86V30.89a1.33,1.33,0,1,0,2.66,0V7.52A7.52,7.52,0,0,0,78.22,0H12.7A7.52,7.52,0,0,0,5.18,7.52V54a7.5,7.5,0,0,0,1.74,4.78H2.37A2.37,2.37,0,0,0,0,61.1v3.59A6.16,6.16,0,0,0,6.13,70.87Zm27.79-9.48H57v1.08a.83.83,0,0,1-.8.82H34.72a.82.82,0,0,1-.8-.82Zm-31.26,0H31.25v1.08A3.48,3.48,0,0,0,34.72,66H56.2a3.47,3.47,0,0,0,3.46-3.48V61.39h28.6v3.3a3.49,3.49,0,0,1-3.47,3.51H6.13a3.49,3.49,0,0,1-3.47-3.51Z"/><path class="cls-2" d="M42.35,8.18a1.33,1.33,0,0,0,0-2.66H13.18A2.44,2.44,0,0,0,10.74,8V53.44a2.44,2.44,0,0,0,2.44,2.44H77.74a2.44,2.44,0,0,0,2.44-2.44V8a2.44,2.44,0,0,0-2.44-2.44H48.57a1.33,1.33,0,1,0,0,2.66H77.52V12.1H20.62V8.18Zm26.31,45h-13v-1.6A3.35,3.35,0,0,1,59,48.28h6.33a3.35,3.35,0,0,1,3.34,3.34v1.6ZM59.51,43a2.64,2.64,0,1,1,.77,1.87A2.64,2.64,0,0,1,59.51,43ZM46.79,14.77H77.52V32.66h-6.2v-1.6a6,6,0,0,0-4.66-5.85,5.32,5.32,0,0,0-.75-6.55h0a5.31,5.31,0,0,0-8.27,6.55A6,6,0,0,0,53,31.06v1.6h-6.2V14.77Zm18.53,13a3.35,3.35,0,0,1,3.34,3.34v1.6h-13v-1.6A3.35,3.35,0,0,1,59,27.72Zm-5.81-5.31a2.64,2.64,0,1,1,.77,1.87A2.64,2.64,0,0,1,59.51,22.41ZM46.79,35.32H77.52v17.9h-6.2v-1.6a6,6,0,0,0-4.66-5.85,5.32,5.32,0,0,0-.75-6.55h0a5.31,5.31,0,0,0-8.27,6.55A6,6,0,0,0,53,51.62v1.6h-6.2ZM13.4,8.18H18V12.1H13.4Zm21.87,45h-13v-1.6a3.35,3.35,0,0,1,3.34-3.34h6.33a3.35,3.35,0,0,1,3.34,3.34ZM28.76,40.33a2.64,2.64,0,1,1-1.87,4.51A2.64,2.64,0,0,1,28.76,40.33ZM44.13,53.22h-6.2v-1.6a6,6,0,0,0-4.66-5.85,5.32,5.32,0,0,0-.75-6.55h0a5.31,5.31,0,0,0-8.27,6.55,6,6,0,0,0-4.65,5.85v1.6H13.4V35.32H44.13Zm-12.2-25.5a3.35,3.35,0,0,1,3.34,3.34v1.6h-13v-1.6a3.35,3.35,0,0,1,3.34-3.34Zm-3.17-7.95a2.64,2.64,0,1,1-1.87,4.51A2.64,2.64,0,0,1,28.76,19.77Zm15.37-5V32.66h-6.2v-1.6a6,6,0,0,0-4.66-5.85,5.32,5.32,0,0,0-.75-6.55h0a5.31,5.31,0,0,0-8.27,6.55,6,6,0,0,0-4.65,5.85v1.6H13.4V14.77Z"/></g></g></svg>