<svg xmlns="http://www.w3.org/2000/svg" viewBox="0 0 70.87 70.87"><defs><style>.cls-1{fill:#e77453;opacity:0.5;}.cls-2{fill:#3c86a7;}</style></defs><g id="Слой_2" data-name="Слой 2"><g id="Слой_1-2" data-name="Слой 1"><rect class="cls-1" x="0.72" y="41.96" width="21.41" height="28.1"/><path class="cls-2" d="M70.87,59.18V50.55l-3.31-.85-.07-.16,1.74-2.94-6.1-6.1-2.94,1.74L60,42.17l-.84-3.31H50.55l-.85,3.31-.16.07L46.6,40.5l-6.1,6.1,1.74,2.94a1.11,1.11,0,0,0-.07.16l-3.31.85v8.63l3.31.85a1.11,1.11,0,0,0,.07.16L40.5,63.13l6.1,6.1,2.94-1.74.16.07.85,3.31h8.63L60,67.56l.16-.07,2.94,1.74,6.1-6.1-1.74-2.94s.05-.11.07-.17Zm-4.51,3.59-3.59,3.59-2.45-1.45-.55.26a9.58,9.58,0,0,1-1.09.45l-.57.21-.7,2.75H52.32l-.7-2.75-.57-.21A9.58,9.58,0,0,1,50,65.17l-.55-.26L47,66.36l-3.59-3.59,1.45-2.45-.26-.55c-.17-.35-.32-.71-.46-1.09l-.2-.57-2.75-.7V52.32l2.75-.7.2-.57A9.63,9.63,0,0,1,44.56,50l.26-.55L43.37,47,47,43.37l2.45,1.45.55-.26c.35-.17.71-.32,1.08-.46l.58-.2.7-2.75h5.09l.7,2.75.57.2a9.63,9.63,0,0,1,1.09.46l.55.26,2.44-1.45L66.36,47l-1.45,2.45.26.55A10.24,10.24,0,0,1,65.62,51l.21.58,2.75.7v5.09l-2.75.7-.21.57a9.58,9.58,0,0,1-.45,1.09l-.26.55Z"/><path class="cls-2" d="M54.86,45.72A9.15,9.15,0,1,0,64,54.86,9.15,9.15,0,0,0,54.86,45.72Zm0,16a6.86,6.86,0,1,1,6.86-6.86A6.86,6.86,0,0,1,54.86,61.72Z"/><path class="cls-2" d="M54.86,50.29a4.58,4.58,0,1,0,4.58,4.57A4.58,4.58,0,0,0,54.86,50.29Zm0,6.86a2.29,2.29,0,1,1,2.29-2.29A2.29,2.29,0,0,1,54.86,57.15Z"/><path class="cls-2" d="M29,19.35a6.79,6.79,0,0,0,1.91,2.89v1l-5.43,2a5.74,5.74,0,0,0-3.71,5.35v6H49.15v-6a5.74,5.74,0,0,0-3.71-5.35l-5.43-2v-1a6.79,6.79,0,0,0,1.91-2.89,4.57,4.57,0,0,0,3.8-4.49V10.29a10.29,10.29,0,1,0-20.57,0v4.57A4.56,4.56,0,0,0,29,19.35Zm8.77,4.34L35.43,27.5l-2.28-3.81V23.6a6.73,6.73,0,0,0,4.57,0Zm-6.21,1.72,2.31,3.84-2.29,1.14L30.05,26ZM46.86,30.6v3.69H24V30.6a3.45,3.45,0,0,1,2.23-3.21l1.68-.63,2.28,6.86L35.43,31l5.24,2.62L43,26.76l1.68.63A3.44,3.44,0,0,1,46.86,30.6Zm-6-4.64-1.48,4.43-2.29-1.14,2.3-3.84Zm-5.39-4.24a4.58,4.58,0,0,1-4.57-4.57V12.5a8.87,8.87,0,0,0,4.57-1.83A8.87,8.87,0,0,0,40,12.5v4.65A4.58,4.58,0,0,1,35.43,21.72Zm6.86-4.89V12.89a2.27,2.27,0,0,1,0,3.94ZM35.43,2.29a8,8,0,0,1,8,8v.63a4.53,4.53,0,0,0-2.28-.63H41a6.65,6.65,0,0,1-4.71-1.95l-.81-.81-.81.81a6.63,6.63,0,0,1-4.71,1.95h-.19a4.57,4.57,0,0,0-2.29.63v-.63A8,8,0,0,1,35.43,2.29Zm-6.85,10.6v3.94a2.26,2.26,0,0,1,0-3.94Z"/><path class="cls-2" d="M0,70.87H22.86V41.15H0ZM2.29,43.43H20.57V68.58H2.29Z"/><path class="cls-2" d="M4.57,45.72H18.29V48H4.57Z"/><path class="cls-2" d="M4.57,50.29H6.86v2.29H4.57Z"/><path class="cls-2" d="M9.14,50.29h9.15v2.29H9.14Z"/><path class="cls-2" d="M4.57,54.86H18.29v2.29H4.57Z"/><path class="cls-2" d="M4.57,59.44H18.29v2.28H4.57Z"/><path class="cls-2" d="M16,64h2.29v2.28H16Z"/><path class="cls-2" d="M4.57,64h9.15v2.28H4.57Z"/><path class="cls-2" d="M30.53,51.1l-1.62-1.62-5.38,5.38,5.38,5.38,1.62-1.61L27.91,56h8.67V53.72H27.91Z"/><path class="cls-2" d="M12.57,18.29a1.15,1.15,0,0,1,1.15-1.14H19l-2.62,2.62L18,21.38,23.33,16,18,10.62l-1.61,1.62L19,14.86H13.72a3.44,3.44,0,0,0-3.43,3.43V38.86h2.28Z"/><path class="cls-2" d="M54.86,18.29V32.67l-2.62-2.62-1.61,1.62L56,37.05l5.38-5.38-1.62-1.62-2.62,2.62V18.29a3.44,3.44,0,0,0-3.43-3.43H48v2.29h5.71A1.14,1.14,0,0,1,54.86,18.29Z"/></g></g></svg>