<svg xmlns="http://www.w3.org/2000/svg" viewBox="0 0 61.86 70.87"><defs><style>.cls-1{fill:#3c86a7;}.cls-2{fill:#e77453;opacity:0.5;}</style></defs><g id="Слой_2" data-name="Слой 2"><g id="Слой_1-2" data-name="Слой 1"><path class="cls-1" d="M22.06,54.88A2.86,2.86,0,0,1,19.19,52V48.57h-.58V52a2.87,2.87,0,0,1-5.74,0V48.38a4.48,4.48,0,0,1-3.16-4.26V31.49A1.29,1.29,0,0,1,11,30.2H24.17l0,.48a127.92,127.92,0,0,1-.48,21.42h0a3.58,3.58,0,0,0,.16,1.7l.12.36-.31.22A2.84,2.84,0,0,1,22.06,54.88Zm-4.45-7.31h2.58V52a1.88,1.88,0,0,0,2.61,1.71A5.17,5.17,0,0,1,22.71,52h0a124.37,124.37,0,0,0,.5-20.77H11a.29.29,0,0,0-.29.29V44.12a3.47,3.47,0,0,0,2.76,3.38l.4.08V52a1.87,1.87,0,0,0,3.74,0Z"/><path class="cls-1" d="M24.14,29.62H11a1.29,1.29,0,0,1-1.29-1.29,9.17,9.17,0,0,1,4.42-7.85L13,17.78a1.28,1.28,0,0,1,0-1,1.3,1.3,0,0,1,.69-.71,1.28,1.28,0,0,1,1,0,1.3,1.3,0,0,1,.72.7l1.15,2.69a9.26,9.26,0,0,1,4.79,0l1-2.34.3,1.62c.62,3.27,1.07,6,1.44,8.49v.05ZM14.16,17l-.11,0a.29.29,0,0,0-.16.38l1.52,3.52-.4.22a8.19,8.19,0,0,0-4.3,7.2.29.29,0,0,0,.29.29H23.1l-.05-1.27-.18-1.18a1.29,1.29,0,1,1-.81-2.29,1.22,1.22,0,0,1,.46.09c-.18-1.08-.38-2.21-.6-3.42l-.06.14-.44-.14a8.07,8.07,0,0,0-5.05,0l-.43.14-1.51-3.53a.31.31,0,0,0-.17-.16Zm7.9,7.9a.29.29,0,1,0,.29.29A.29.29,0,0,0,22.06,24.88Zm-6.32,1.58A1.29,1.29,0,1,1,17,25.17,1.29,1.29,0,0,1,15.74,26.46Zm0-1.58a.29.29,0,1,0,.29.29A.29.29,0,0,0,15.74,24.88Z"/><path class="cls-1" d="M6.27,43.83A2.87,2.87,0,0,1,3.4,41V33.07a2.87,2.87,0,1,1,5.73,0V41A2.87,2.87,0,0,1,6.27,43.83Zm0-12.63A1.87,1.87,0,0,0,4.4,33.07V41a1.87,1.87,0,1,0,3.73,0V33.07A1.87,1.87,0,0,0,6.27,31.2Z"/><path class="cls-2" d="M41.77,26.4h-.54l-.08-.4a6.58,6.58,0,0,1,1.61-5.18,7.6,7.6,0,0,1,4.93-2.66l.47,0,.06.46a7.09,7.09,0,0,1-1.55,5.28A6.56,6.56,0,0,1,41.77,26.4Z"/><path class="cls-2" d="M37.48,49.26h0c-2.42,0-4.18-2.22-5.58-4.36C28.41,39.61,27.68,33,30.13,29.2a8.31,8.31,0,0,1,6.72-4,9.41,9.41,0,0,1,3.32.72,7.24,7.24,0,0,0,2.42.57,5.91,5.91,0,0,0,2.15-.53,9.21,9.21,0,0,1,3.58-.77,8.13,8.13,0,0,1,6.15,3.25l.37.46-.52.29a5.93,5.93,0,0,0-3.13,5.73,6.12,6.12,0,0,0,3.94,5.37l.5.19-.22.49a22.72,22.72,0,0,1-2,3.72c-1.48,2.26-3.31,4.58-5.67,4.6a5.42,5.42,0,0,1-2.37-.61A6,6,0,0,0,42.62,48a6.26,6.26,0,0,0-2.79.67A5.27,5.27,0,0,1,37.48,49.26Z"/><path class="cls-1" d="M41.77,26.36h-.54l-.07-.4a6.53,6.53,0,0,1,1.6-5.18,7.6,7.6,0,0,1,4.93-2.66l.47,0,.06.46a7.09,7.09,0,0,1-1.55,5.28A6.56,6.56,0,0,1,41.77,26.36Zm5.51-7.19a6.74,6.74,0,0,0-3.75,2.23,6,6,0,0,0-1.44,4,5.6,5.6,0,0,0,3.79-2.16A6.43,6.43,0,0,0,47.28,19.17Z"/><path class="cls-1" d="M37.48,49.26h0c-2.42,0-4.18-2.22-5.58-4.36-3.45-5.29-4.18-11.9-1.73-15.7a8.31,8.31,0,0,1,6.72-4,9.41,9.41,0,0,1,3.32.72,7.24,7.24,0,0,0,2.42.57,5.91,5.91,0,0,0,2.15-.53,9.21,9.21,0,0,1,3.58-.77,8.13,8.13,0,0,1,6.15,3.25l.37.46-.52.29a5.93,5.93,0,0,0-3.13,5.73,6.12,6.12,0,0,0,3.94,5.37l.5.19-.22.49a22.72,22.72,0,0,1-2,3.72c-1.48,2.26-3.31,4.58-5.67,4.59a5.29,5.29,0,0,1-2.37-.6A6,6,0,0,0,42.62,48a6.26,6.26,0,0,0-2.79.67A5.27,5.27,0,0,1,37.48,49.26Zm-.63-23.09A7.33,7.33,0,0,0,31,29.74c-1.88,2.92-1.91,9,1.73,14.61,1.18,1.81,2.79,3.89,4.74,3.91a4.15,4.15,0,0,0,2-.52,7.09,7.09,0,0,1,3.2-.76h.05a6.57,6.57,0,0,1,3.14.76,4.22,4.22,0,0,0,1.94.51c1.89,0,3.51-2.1,4.84-4.14A19.86,19.86,0,0,0,54.29,41a7.12,7.12,0,0,1-4.1-6,6.88,6.88,0,0,1,3.13-6.36,7,7,0,0,0-5-2.44,8.26,8.26,0,0,0-3.23.71,6.75,6.75,0,0,1-2.5.59,8,8,0,0,1-2.76-.63A8.46,8.46,0,0,0,36.85,26.17Z"/><path class="cls-1" d="M61.86,33.88V65A5.92,5.92,0,0,1,56,70.87H28.2A5.92,5.92,0,0,1,22.29,65v-59A5.92,5.92,0,0,1,28.2,0H56a5.92,5.92,0,0,1,5.91,5.91V8.42a1.18,1.18,0,1,1-2.36,0V5.91A3.55,3.55,0,0,0,56,2.36H33.45l1.14,2a1.75,1.75,0,0,0,1.55.91H48a1.19,1.19,0,0,1,0,2.37H36.14a4.15,4.15,0,0,1-3.62-2.13L30.75,2.36H28.2a3.55,3.55,0,0,0-3.54,3.55V65A3.55,3.55,0,0,0,28.2,68.5H56A3.55,3.55,0,0,0,59.5,65V33.88a1.18,1.18,0,0,1,2.36,0Zm-43-32.7A1.18,1.18,0,0,0,17.72,0H5.91A5.92,5.92,0,0,0,0,5.91V65a5.92,5.92,0,0,0,5.91,5.91H17.72a1.19,1.19,0,0,0,0-2.37H5.91A3.55,3.55,0,0,1,2.36,65v-59A3.55,3.55,0,0,1,5.91,2.36H17.72A1.18,1.18,0,0,0,18.9,1.18Z"/></g></g></svg>