<svg xmlns="http://www.w3.org/2000/svg" viewBox="0 0 78.74 70.87"><defs><style>.cls-1{fill:#e77453;opacity:0.5;}.cls-2{fill:#3c86a7;}</style></defs><g id="Слой_2" data-name="Слой 2"><g id="Слой_1-2" data-name="Слой 1"><rect class="cls-1" x="52.43" y="1.32" width="4.05" height="51.18" transform="translate(7.28 -11.36) rotate(12.75)"/><g id="Outline"><path class="cls-2" d="M63.71,1.86A3.94,3.94,0,0,0,58.29.59,4,4,0,0,0,56.53,3l-10.72,46a1.35,1.35,0,0,0,.16,1l2,3.15a1.32,1.32,0,0,0,1.81.42h0l3.15-2a1.33,1.33,0,0,0,.59-.82l10.72-46a3.92,3.92,0,0,0-.49-3Zm-4,1a1.32,1.32,0,0,1,1.81.42,1.35,1.35,0,0,1,.17,1l-.6,2.55L58.49,6.2l.6-2.56a1.35,1.35,0,0,1,.58-.82Zm.78,6.53-.59,2.55-2.56-.59.6-2.56ZM51,49.72l-1.57,1-1-1.58,8.22-35.26,2.55.6Z"/><path class="cls-2" d="M77.43,61.68H74.8V17.06a5.25,5.25,0,0,0-5.25-5.25H64.3v2.63h5.25a2.62,2.62,0,0,1,2.63,2.62V61.68H55.12a1.31,1.31,0,0,0-.59.14L52.18,63H26.56l-2.35-1.17a1.31,1.31,0,0,0-.59-.14H6.56V17.06a2.62,2.62,0,0,1,2.63-2.62h42V11.81h-42a5.25,5.25,0,0,0-5.25,5.25V61.68H1.31A1.31,1.31,0,0,0,0,63v2.63a5.26,5.26,0,0,0,5.25,5.25H73.49a5.26,5.26,0,0,0,5.25-5.25V63A1.31,1.31,0,0,0,77.43,61.68Zm-1.31,3.94a2.63,2.63,0,0,1-2.63,2.62H5.25a2.63,2.63,0,0,1-2.63-2.62V64.3H23.31l2.35,1.18a1.31,1.31,0,0,0,.59.14H52.49a1.31,1.31,0,0,0,.59-.14l2.35-1.18H76.12Z"/><path class="cls-2" d="M69.55,59.06V18.37a1.31,1.31,0,0,0-1.31-1.31H63v2.62h3.94v7.88H61.68v2.62h5.25V59.06Z"/><path class="cls-2" d="M14.44,22.31h2.62v2.62H14.44Z"/><path class="cls-2" d="M19.69,22.31h2.62v2.62H19.69Z"/><path class="cls-2" d="M24.93,22.31h2.63v2.62H24.93Z"/><path class="cls-2" d="M47.24,27.56H11.81V19.68H49.87V17.06H10.5a1.31,1.31,0,0,0-1.31,1.31V59.06h2.62V30.18H47.24Z"/><path class="cls-2" d="M18.37,34.12H21v2.63H18.37Z"/><path class="cls-2" d="M23.62,34.12H42v2.63H23.62Z"/><path class="cls-2" d="M15.75,39.37H38.06V42H15.75Z"/><path class="cls-2" d="M15.75,44.62H38.06v2.62H15.75Z"/><path class="cls-2" d="M22.44,53.07l.82,1.64a2.3,2.3,0,0,0,3.08,1,2,2,0,0,0,.25-.14l2.11-1.41,1.58,1.58a2.29,2.29,0,0,0,1.62.67h7.47V53.81H32l-1.67-1.67a2.29,2.29,0,0,0-2.9-.29l-2,1.35-1-2a2.29,2.29,0,0,0-3.08-1,2.27,2.27,0,0,0-1.1,1.2l-1.81,4.52,2.43,1Z"/><path class="cls-2" d="M42,53.81h2.63v2.62H42Z"/><path class="cls-2" d="M13.12,6.56H42V9.19H13.12Z"/><path class="cls-2" d="M44.62,6.56h2.62V9.19H44.62Z"/></g></g></g></svg>