<svg xmlns="http://www.w3.org/2000/svg" viewBox="0 0 70.87 70.87"><defs><style>.cls-1{fill:#e77453;opacity:0.5;}.cls-2{fill:#3c86a7;}</style></defs><g id="Слой_2" data-name="Слой 2"><g id="Слой_1-2" data-name="Слой 1"><circle class="cls-1" cx="12.57" cy="35.43" r="11.4"/><path class="cls-2" d="M70.87,1.14H58.29a3.41,3.41,0,0,0-3.23,2.35L52.89,1.75a8,8,0,0,0-5-1.75H33.15a2.3,2.3,0,0,0-2.29,2.29,4.44,4.44,0,0,0,.64,2.28H26.29A3.44,3.44,0,0,0,22.86,8a3.3,3.3,0,0,0,.21,1.14H21.72a3.42,3.42,0,0,0-3.22,2.29H10.29a5.73,5.73,0,0,0-5.72,5.72v8.59a12.56,12.56,0,0,0,0,19.38v6.32a5.72,5.72,0,0,0,5.72,5.71h16a6.53,6.53,0,0,1-2.63,4.57h-.76a5.72,5.72,0,0,0-5.71,5.72,3.43,3.43,0,0,0,3.42,3.43H50.29a3.44,3.44,0,0,0,3.43-3.43A5.72,5.72,0,0,0,48,61.72h-.77a6.52,6.52,0,0,1-2.62-4.57h16a5.71,5.71,0,0,0,5.71-5.71V24h4.58ZM40,18.29H26.29a1.15,1.15,0,0,1,0-2.29H40Zm-9.68,4.57H28.58a1.15,1.15,0,1,1,0-2.29h2.1Zm-7.26-4.57a3.42,3.42,0,0,0,2.33,2.15,3.43,3.43,0,0,0,3.18,4.71H30L27.48,41.87a5.06,5.06,0,0,0-.05.68v.88a4.48,4.48,0,0,0,.64,2.29H19.78a12.56,12.56,0,0,0-7.21-22.86,10.88,10.88,0,0,0-1.14.06V18.29Zm6.65,25.14v-.88c0-.12,0-.23,0-.34L33,20.57H49.31l3.24,21.64a1.87,1.87,0,0,1,0,.34v.88a2.3,2.3,0,0,1-2.29,2.29H32A2.29,2.29,0,0,1,29.72,43.43Zm25.09-1.56L52.12,23.93a6.67,6.67,0,0,0,.77-.54l2.17-1.73A3.4,3.4,0,0,0,58.29,24h1.15V45.72H54.23a4.57,4.57,0,0,0,.63-2.29v-.88a3.82,3.82,0,0,0,0-.68ZM25.15,8a1.14,1.14,0,0,1,1.14-1.14H44.1l1.09,1.08a8,8,0,0,0,5.66,2.35h1.73V8H50.85A5.69,5.69,0,0,1,46.8,6.33L45.05,4.57H35.43a2.28,2.28,0,0,1-2.28-2.28H47.89a5.73,5.73,0,0,1,3.57,1.25l3.4,2.72V18.88l-3.12,2.5-.46-3.09h-9V10.76a2.74,2.74,0,0,1,.81-1.95L41.48,7.19a5.19,5.19,0,0,0-1.19,2h-14A1.14,1.14,0,0,1,25.15,8Zm-3.43,3.43H40v2.29H21.72a1.15,1.15,0,1,1,0-2.29ZM6.86,17.15a3.43,3.43,0,0,1,3.43-3.43H18.5A3.43,3.43,0,0,0,21.72,16H11.43a2.3,2.3,0,0,0-2.29,2.29v5.06a12.15,12.15,0,0,0-2.28.9ZM2.29,35.43A10.29,10.29,0,1,1,12.57,45.72,10.29,10.29,0,0,1,2.29,35.43Zm49.15,32a1.15,1.15,0,0,1-1.15,1.14H20.57a1.14,1.14,0,0,1-1.14-1.14A3.44,3.44,0,0,1,22.86,64H48A3.44,3.44,0,0,1,51.44,67.44ZM44,61.72H26.83a8.8,8.8,0,0,0,1.7-4.57h13.8A8.81,8.81,0,0,0,44,61.72ZM64,51.44a3.43,3.43,0,0,1-3.43,3.42H10.29a3.43,3.43,0,0,1-3.43-3.42V46.62A12.45,12.45,0,0,0,12.57,48H59.44a2.29,2.29,0,0,0,2.28-2.29V24H64Zm4.57-29.72H58.29a1.15,1.15,0,0,1-1.14-1.15v-16a1.14,1.14,0,0,1,1.14-1.14H68.58Z"/><path class="cls-2" d="M13.72,50.29H16v2.29H13.72Z"/><path class="cls-2" d="M18.29,50.29h2.28v2.29H18.29Z"/><path class="cls-2" d="M9.14,50.29h2.29v2.29H9.14Z"/><path class="cls-2" d="M11.43,38.86a1.14,1.14,0,0,1-1.14-1.14H8a3.44,3.44,0,0,0,3.43,3.43v2.28h2.29V41.15h3.43V37.72a3.44,3.44,0,0,0-3.43-3.43H11.43a1.14,1.14,0,0,1-1.14-1.14V32h3.43a1.15,1.15,0,0,1,1.14,1.15h2.29a3.44,3.44,0,0,0-3.43-3.43V27.43H11.43v2.29H8v3.43a3.44,3.44,0,0,0,3.43,3.43h2.29a1.14,1.14,0,0,1,1.14,1.14v1.14Z"/><path class="cls-2" d="M44.58,28.58a3.43,3.43,0,0,1-6.86,0V22.86H35.43v5.72a5.72,5.72,0,0,0,11.43,0V22.86H44.58Z"/></g></g></svg>