<svg xmlns="http://www.w3.org/2000/svg" viewBox="0 0 73.23 70.87"><defs><style>.cls-1{fill:#e77453;opacity:0.5;}.cls-2{fill:#3c86a7;}</style></defs><g id="Слой_2" data-name="Слой 2"><g id="Слой_1-2" data-name="Слой 1"><circle class="cls-1" cx="55.4" cy="53.15" r="16.28"/><g id="surface1"><path class="cls-2" d="M5.91,63.78h30.7V61.42H5.91a3.55,3.55,0,0,1-3.55-3.55v-52A3.55,3.55,0,0,1,5.91,2.36h52a3.55,3.55,0,0,1,3.55,3.55V33.07h2.36V5.91A5.92,5.92,0,0,0,57.87,0h-52A5.92,5.92,0,0,0,0,5.91v52A5.92,5.92,0,0,0,5.91,63.78Z"/><path class="cls-2" d="M4.72,4.72H7.09V7.09H4.72Z"/><path class="cls-2" d="M9.45,4.72h2.36V7.09H9.45Z"/><path class="cls-2" d="M14.17,4.72h2.37V7.09H14.17Z"/><path class="cls-2" d="M4.72,9.45H59.05v2.36H4.72Z"/><path class="cls-2" d="M16.88,14.52l-3,3a5.93,5.93,0,1,0,1.67,1.67l3-3ZM10.63,26a3.54,3.54,0,1,1,0-7.08,3.49,3.49,0,0,1,1.52.35L9.8,21.6l1.66,1.67,2.36-2.35a3.49,3.49,0,0,1,.35,1.52A3.53,3.53,0,0,1,10.63,26Z"/><path class="cls-2" d="M20.08,18.9H40.16v2.36H20.08Z"/><path class="cls-2" d="M20.08,23.62h8.27V26H20.08Z"/><path class="cls-2" d="M30.71,23.62H47.24V26H30.71Z"/><path class="cls-2" d="M42.52,18.9H54.33v2.36H42.52Z"/><path class="cls-2" d="M16.88,28.69l-3,3a5.93,5.93,0,1,0,1.67,1.67l3-3ZM10.63,40.16a3.55,3.55,0,0,1,0-7.09,3.49,3.49,0,0,1,1.52.35L9.8,35.78l1.66,1.67,2.36-2.35a3.45,3.45,0,0,1,.35,1.51A3.54,3.54,0,0,1,10.63,40.16Z"/><path class="cls-2" d="M20.08,33.07H40.16v2.36H20.08Z"/><path class="cls-2" d="M20.08,37.8h8.27v2.36H20.08Z"/><path class="cls-2" d="M30.71,37.8h9.45v2.36H30.71Z"/><path class="cls-2" d="M42.52,33.07h4.72v2.36H42.52Z"/><path class="cls-2" d="M16.88,42.87l-3,3a5.92,5.92,0,1,0,1.67,1.67l3-3ZM10.63,54.33a3.55,3.55,0,0,1,0-7.09,3.65,3.65,0,0,1,1.52.36L9.8,50l1.66,1.67,2.36-2.35a3.46,3.46,0,0,1,.35,1.52A3.54,3.54,0,0,1,10.63,54.33Z"/><path class="cls-2" d="M20.08,47.24H35.43v2.37H20.08Z"/><path class="cls-2" d="M20.08,52h8.27v2.36H20.08Z"/><path class="cls-2" d="M30.71,52h4.72v2.36H30.71Z"/><path class="cls-2" d="M55.51,70.87A17.72,17.72,0,1,0,37.8,53.15,17.72,17.72,0,0,0,55.51,70.87Zm0-33.07A15.35,15.35,0,1,1,40.16,53.15,15.36,15.36,0,0,1,55.51,37.8Z"/><path class="cls-2" d="M48.31,53.8l-2.12,1.06,2.37,4.72a1.16,1.16,0,0,0,.86.64l.19,0a1.18,1.18,0,0,0,.83-.35L64.61,45.72l-1.67-1.67-13,13Z"/></g></g></g></svg>